<svg xmlns="http://www.w3.org/2000/svg" xmlns:xlink="http://www.w3.org/1999/xlink" width="500" zoomAndPan="magnify" viewBox="0 0 375 374.999991" height="500" preserveAspectRatio="xMidYMid meet" version="1.0"><defs><clipPath id="0629dbb6ba"><path d="M 44.292969 44.292969 L 330 44.292969 L 330 330.792969 L 44.292969 330.792969 Z M 44.292969 44.292969 " clip-rule="nonzero"/></clipPath><clipPath id="95d962a123"><path d="M 90.082031 43.925781 L 283.773438 43.925781 C 285.289062 43.925781 286.796875 44 288.304688 44.148438 C 289.8125 44.296875 291.304688 44.519531 292.789062 44.8125 C 294.277344 45.109375 295.742188 45.476562 297.191406 45.914062 C 298.640625 46.351562 300.0625 46.859375 301.460938 47.4375 C 302.859375 48.015625 304.226562 48.664062 305.5625 49.375 C 306.898438 50.085938 308.195312 50.863281 309.453125 51.703125 C 310.710938 52.542969 311.925781 53.441406 313.097656 54.402344 C 314.265625 55.359375 315.386719 56.375 316.457031 57.441406 C 317.527344 58.511719 318.542969 59.628906 319.503906 60.796875 C 320.464844 61.964844 321.363281 63.179688 322.203125 64.433594 C 323.046875 65.691406 323.824219 66.988281 324.535156 68.320312 C 325.25 69.652344 325.898438 71.015625 326.476562 72.414062 C 327.054688 73.808594 327.566406 75.230469 328.003906 76.675781 C 328.445312 78.125 328.8125 79.589844 329.105469 81.070312 C 329.402344 82.554688 329.625 84.046875 329.773438 85.550781 C 329.921875 87.054688 329.996094 88.5625 329.996094 90.074219 L 329.996094 284.636719 C 329.996094 286.148438 329.921875 287.65625 329.773438 289.160156 C 329.625 290.664062 329.402344 292.15625 329.105469 293.636719 C 328.8125 295.121094 328.445312 296.585938 328.003906 298.03125 C 327.566406 299.476562 327.054688 300.898438 326.476562 302.296875 C 325.898438 303.691406 325.25 305.054688 324.535156 306.390625 C 323.824219 307.722656 323.046875 309.015625 322.203125 310.273438 C 321.363281 311.53125 320.464844 312.742188 319.503906 313.910156 C 318.542969 315.078125 317.527344 316.199219 316.457031 317.265625 C 315.386719 318.335938 314.265625 319.347656 313.097656 320.308594 C 311.925781 321.265625 310.710938 322.164062 309.453125 323.003906 C 308.195312 323.84375 306.898438 324.621094 305.5625 325.332031 C 304.226562 326.046875 302.859375 326.691406 301.460938 327.269531 C 300.0625 327.847656 298.640625 328.355469 297.191406 328.796875 C 295.742188 329.234375 294.277344 329.601562 292.789062 329.894531 C 291.304688 330.191406 289.8125 330.414062 288.304688 330.558594 C 286.796875 330.707031 285.289062 330.78125 283.773438 330.78125 L 90.082031 330.78125 C 88.570312 330.78125 87.058594 330.707031 85.554688 330.5625 C 84.046875 330.414062 82.550781 330.191406 81.066406 329.894531 C 79.582031 329.601562 78.113281 329.234375 76.667969 328.796875 C 75.21875 328.355469 73.792969 327.847656 72.394531 327.269531 C 70.996094 326.691406 69.628906 326.046875 68.296875 325.332031 C 66.960938 324.621094 65.664062 323.84375 64.40625 323.003906 C 63.144531 322.167969 61.929688 321.265625 60.761719 320.308594 C 59.589844 319.347656 58.472656 318.335938 57.398438 317.265625 C 56.328125 316.199219 55.316406 315.078125 54.355469 313.910156 C 53.394531 312.742188 52.492188 311.53125 51.652344 310.273438 C 50.8125 309.015625 50.035156 307.722656 49.320312 306.390625 C 48.605469 305.054688 47.960938 303.691406 47.382812 302.296875 C 46.800781 300.898438 46.292969 299.476562 45.851562 298.03125 C 45.414062 296.585938 45.046875 295.121094 44.75 293.636719 C 44.457031 292.15625 44.234375 290.664062 44.085938 289.160156 C 43.9375 287.65625 43.863281 286.148438 43.863281 284.636719 L 43.863281 90.074219 C 43.863281 88.5625 43.9375 87.054688 44.085938 85.550781 C 44.234375 84.046875 44.457031 82.554688 44.75 81.070312 C 45.046875 79.589844 45.414062 78.125 45.851562 76.675781 C 46.292969 75.230469 46.800781 73.808594 47.382812 72.414062 C 47.960938 71.015625 48.605469 69.652344 49.320312 68.320312 C 50.035156 66.988281 50.8125 65.691406 51.652344 64.433594 C 52.492188 63.179688 53.394531 61.964844 54.355469 60.796875 C 55.316406 59.628906 56.328125 58.511719 57.398438 57.441406 C 58.472656 56.375 59.589844 55.359375 60.761719 54.402344 C 61.929688 53.441406 63.144531 52.542969 64.40625 51.703125 C 65.664062 50.863281 66.960938 50.085938 68.296875 49.375 C 69.628906 48.664062 70.996094 48.015625 72.394531 47.4375 C 73.792969 46.859375 75.21875 46.351562 76.667969 45.914062 C 78.113281 45.476562 79.582031 45.109375 81.066406 44.8125 C 82.550781 44.519531 84.046875 44.296875 85.554688 44.148438 C 87.058594 44 88.570312 43.925781 90.082031 43.925781 Z M 90.082031 43.925781 " clip-rule="nonzero"/></clipPath><linearGradient x1="255.753687" gradientTransform="matrix(2.235058, 0, 0, 2.231477, -526.613633, -905.187538)" y1="554.196293" x2="382.744513" gradientUnits="userSpaceOnUse" y2="424.986833" id="54e570d4b5"><stop stop-opacity="1" stop-color="rgb(2.69928%, 0.39978%, 20.799255%)" offset="0"/><stop stop-opacity="1" stop-color="rgb(2.867126%, 0.480652%, 20.849609%)" offset="0.0625"/><stop stop-opacity="1" stop-color="rgb(3.189087%, 0.637817%, 20.94574%)" offset="0.0703125"/><stop stop-opacity="1" stop-color="rgb(3.500366%, 0.788879%, 21.038818%)" offset="0.078125"/><stop stop-opacity="1" stop-color="rgb(3.81012%, 0.939941%, 21.131897%)" offset="0.0859375"/><stop stop-opacity="1" stop-color="rgb(4.121399%, 1.091003%, 21.224976%)" offset="0.09375"/><stop stop-opacity="1" stop-color="rgb(4.431152%, 1.243591%, 21.31958%)" offset="0.101562"/><stop stop-opacity="1" stop-color="rgb(4.742432%, 1.394653%, 21.412659%)" offset="0.109375"/><stop stop-opacity="1" stop-color="rgb(5.052185%, 1.545715%, 21.505737%)" offset="0.117188"/><stop stop-opacity="1" stop-color="rgb(5.363464%, 1.696777%, 21.598816%)" offset="0.125"/><stop stop-opacity="1" stop-color="rgb(5.674744%, 1.847839%, 21.691895%)" offset="0.132812"/><stop stop-opacity="1" stop-color="rgb(5.984497%, 1.998901%, 21.784973%)" offset="0.140625"/><stop stop-opacity="1" stop-color="rgb(6.295776%, 2.151489%, 21.878052%)" offset="0.148438"/><stop stop-opacity="1" stop-color="rgb(6.60553%, 2.302551%, 21.97113%)" offset="0.15625"/><stop stop-opacity="1" stop-color="rgb(6.916809%, 2.453613%, 22.065735%)" offset="0.164062"/><stop stop-opacity="1" stop-color="rgb(7.226562%, 2.604675%, 22.158813%)" offset="0.171875"/><stop stop-opacity="1" stop-color="rgb(7.537842%, 2.755737%, 22.251892%)" offset="0.179688"/><stop stop-opacity="1" stop-color="rgb(7.847595%, 2.908325%, 22.344971%)" offset="0.1875"/><stop stop-opacity="1" stop-color="rgb(8.158875%, 3.059387%, 22.438049%)" offset="0.195312"/><stop stop-opacity="1" stop-color="rgb(8.468628%, 3.210449%, 22.531128%)" offset="0.203125"/><stop stop-opacity="1" stop-color="rgb(8.779907%, 3.361511%, 22.624207%)" offset="0.210938"/><stop stop-opacity="1" stop-color="rgb(9.091187%, 3.512573%, 22.717285%)" offset="0.21875"/><stop stop-opacity="1" stop-color="rgb(9.40094%, 3.663635%, 22.810364%)" offset="0.226563"/><stop stop-opacity="1" stop-color="rgb(9.712219%, 3.816223%, 22.904968%)" offset="0.234375"/><stop stop-opacity="1" stop-color="rgb(10.021973%, 3.967285%, 22.998047%)" offset="0.242188"/><stop stop-opacity="1" stop-color="rgb(10.333252%, 4.118347%, 23.091125%)" offset="0.25"/><stop stop-opacity="1" stop-color="rgb(10.643005%, 4.269409%, 23.184204%)" offset="0.257813"/><stop stop-opacity="1" stop-color="rgb(10.954285%, 4.420471%, 23.277283%)" offset="0.265625"/><stop stop-opacity="1" stop-color="rgb(11.264038%, 4.571533%, 23.370361%)" offset="0.273438"/><stop stop-opacity="1" stop-color="rgb(11.575317%, 4.724121%, 23.46344%)" offset="0.28125"/><stop stop-opacity="1" stop-color="rgb(11.885071%, 4.875183%, 23.556519%)" offset="0.289063"/><stop stop-opacity="1" stop-color="rgb(12.19635%, 5.026245%, 23.651123%)" offset="0.296875"/><stop stop-opacity="1" stop-color="rgb(12.507629%, 5.177307%, 23.744202%)" offset="0.304688"/><stop stop-opacity="1" stop-color="rgb(12.817383%, 5.328369%, 23.83728%)" offset="0.3125"/><stop stop-opacity="1" stop-color="rgb(13.128662%, 5.480957%, 23.930359%)" offset="0.320312"/><stop stop-opacity="1" stop-color="rgb(13.438416%, 5.632019%, 24.023438%)" offset="0.328125"/><stop stop-opacity="1" stop-color="rgb(13.749695%, 5.783081%, 24.116516%)" offset="0.335938"/><stop stop-opacity="1" stop-color="rgb(14.059448%, 5.934143%, 24.209595%)" offset="0.34375"/><stop stop-opacity="1" stop-color="rgb(14.370728%, 6.085205%, 24.302673%)" offset="0.351562"/><stop stop-opacity="1" stop-color="rgb(14.680481%, 6.236267%, 24.397278%)" offset="0.359375"/><stop stop-opacity="1" stop-color="rgb(14.99176%, 6.388855%, 24.490356%)" offset="0.367188"/><stop stop-opacity="1" stop-color="rgb(15.301514%, 6.539917%, 24.583435%)" offset="0.375"/><stop stop-opacity="1" stop-color="rgb(15.612793%, 6.690979%, 24.676514%)" offset="0.382812"/><stop stop-opacity="1" stop-color="rgb(15.924072%, 6.842041%, 24.769592%)" offset="0.390625"/><stop stop-opacity="1" stop-color="rgb(16.233826%, 6.993103%, 24.862671%)" offset="0.398438"/><stop stop-opacity="1" stop-color="rgb(16.545105%, 7.145691%, 24.95575%)" offset="0.40625"/><stop stop-opacity="1" stop-color="rgb(16.854858%, 7.296753%, 25.048828%)" offset="0.414063"/><stop stop-opacity="1" stop-color="rgb(17.166138%, 7.447815%, 25.143433%)" offset="0.421875"/><stop stop-opacity="1" stop-color="rgb(17.475891%, 7.598877%, 25.236511%)" offset="0.429688"/><stop stop-opacity="1" stop-color="rgb(17.78717%, 7.749939%, 25.32959%)" offset="0.4375"/><stop stop-opacity="1" stop-color="rgb(18.096924%, 7.901001%, 25.422668%)" offset="0.445313"/><stop stop-opacity="1" stop-color="rgb(18.408203%, 8.053589%, 25.515747%)" offset="0.453125"/><stop stop-opacity="1" stop-color="rgb(18.717957%, 8.204651%, 25.608826%)" offset="0.460938"/><stop stop-opacity="1" stop-color="rgb(19.029236%, 8.355713%, 25.701904%)" offset="0.46875"/><stop stop-opacity="1" stop-color="rgb(19.340515%, 8.506775%, 25.794983%)" offset="0.476563"/><stop stop-opacity="1" stop-color="rgb(19.650269%, 8.657837%, 25.888062%)" offset="0.484375"/><stop stop-opacity="1" stop-color="rgb(19.961548%, 8.808899%, 25.982666%)" offset="0.492188"/><stop stop-opacity="1" stop-color="rgb(20.271301%, 8.961487%, 26.075745%)" offset="0.494581"/><stop stop-opacity="1" stop-color="rgb(20.426941%, 9.037781%, 26.123047%)" offset="0.5"/><stop stop-opacity="1" stop-color="rgb(20.582581%, 9.112549%, 26.168823%)" offset="0.505419"/><stop stop-opacity="1" stop-color="rgb(20.73822%, 9.188843%, 26.216125%)" offset="0.507813"/><stop stop-opacity="1" stop-color="rgb(20.892334%, 9.263611%, 26.261902%)" offset="0.515625"/><stop stop-opacity="1" stop-color="rgb(21.203613%, 9.414673%, 26.35498%)" offset="0.523438"/><stop stop-opacity="1" stop-color="rgb(21.513367%, 9.565735%, 26.448059%)" offset="0.53125"/><stop stop-opacity="1" stop-color="rgb(21.824646%, 9.718323%, 26.541138%)" offset="0.539063"/><stop stop-opacity="1" stop-color="rgb(22.134399%, 9.869385%, 26.634216%)" offset="0.546875"/><stop stop-opacity="1" stop-color="rgb(22.445679%, 10.020447%, 26.728821%)" offset="0.554688"/><stop stop-opacity="1" stop-color="rgb(22.756958%, 10.171509%, 26.821899%)" offset="0.5625"/><stop stop-opacity="1" stop-color="rgb(23.066711%, 10.322571%, 26.914978%)" offset="0.570313"/><stop stop-opacity="1" stop-color="rgb(23.377991%, 10.473633%, 27.008057%)" offset="0.578125"/><stop stop-opacity="1" stop-color="rgb(23.687744%, 10.626221%, 27.101135%)" offset="0.585938"/><stop stop-opacity="1" stop-color="rgb(23.999023%, 10.777283%, 27.194214%)" offset="0.59375"/><stop stop-opacity="1" stop-color="rgb(24.308777%, 10.928345%, 27.287292%)" offset="0.601563"/><stop stop-opacity="1" stop-color="rgb(24.620056%, 11.079407%, 27.380371%)" offset="0.609375"/><stop stop-opacity="1" stop-color="rgb(24.92981%, 11.230469%, 27.474976%)" offset="0.617188"/><stop stop-opacity="1" stop-color="rgb(25.241089%, 11.381531%, 27.568054%)" offset="0.625"/><stop stop-opacity="1" stop-color="rgb(25.550842%, 11.534119%, 27.661133%)" offset="0.632813"/><stop stop-opacity="1" stop-color="rgb(25.862122%, 11.685181%, 27.754211%)" offset="0.640625"/><stop stop-opacity="1" stop-color="rgb(26.173401%, 11.836243%, 27.84729%)" offset="0.648438"/><stop stop-opacity="1" stop-color="rgb(26.483154%, 11.987305%, 27.940369%)" offset="0.65625"/><stop stop-opacity="1" stop-color="rgb(26.794434%, 12.138367%, 28.033447%)" offset="0.664063"/><stop stop-opacity="1" stop-color="rgb(27.104187%, 12.290955%, 28.126526%)" offset="0.671875"/><stop stop-opacity="1" stop-color="rgb(27.415466%, 12.442017%, 28.22113%)" offset="0.679688"/><stop stop-opacity="1" stop-color="rgb(27.72522%, 12.593079%, 28.314209%)" offset="0.6875"/><stop stop-opacity="1" stop-color="rgb(28.036499%, 12.744141%, 28.407288%)" offset="0.695313"/><stop stop-opacity="1" stop-color="rgb(28.346252%, 12.895203%, 28.500366%)" offset="0.703125"/><stop stop-opacity="1" stop-color="rgb(28.657532%, 13.046265%, 28.593445%)" offset="0.710938"/><stop stop-opacity="1" stop-color="rgb(28.967285%, 13.198853%, 28.686523%)" offset="0.71875"/><stop stop-opacity="1" stop-color="rgb(29.278564%, 13.349915%, 28.779602%)" offset="0.726563"/><stop stop-opacity="1" stop-color="rgb(29.589844%, 13.500977%, 28.872681%)" offset="0.734375"/><stop stop-opacity="1" stop-color="rgb(29.899597%, 13.652039%, 28.967285%)" offset="0.742188"/><stop stop-opacity="1" stop-color="rgb(30.210876%, 13.803101%, 29.060364%)" offset="0.75"/><stop stop-opacity="1" stop-color="rgb(30.52063%, 13.955688%, 29.153442%)" offset="0.757813"/><stop stop-opacity="1" stop-color="rgb(30.831909%, 14.10675%, 29.246521%)" offset="0.765625"/><stop stop-opacity="1" stop-color="rgb(31.141663%, 14.257812%, 29.3396%)" offset="0.773438"/><stop stop-opacity="1" stop-color="rgb(31.452942%, 14.408875%, 29.432678%)" offset="0.78125"/><stop stop-opacity="1" stop-color="rgb(31.762695%, 14.559937%, 29.525757%)" offset="0.789063"/><stop stop-opacity="1" stop-color="rgb(32.073975%, 14.710999%, 29.618835%)" offset="0.796875"/><stop stop-opacity="1" stop-color="rgb(32.383728%, 14.863586%, 29.711914%)" offset="0.804688"/><stop stop-opacity="1" stop-color="rgb(32.695007%, 15.014648%, 29.806519%)" offset="0.8125"/><stop stop-opacity="1" stop-color="rgb(33.006287%, 15.16571%, 29.899597%)" offset="0.820313"/><stop stop-opacity="1" stop-color="rgb(33.31604%, 15.316772%, 29.992676%)" offset="0.828125"/><stop stop-opacity="1" stop-color="rgb(33.627319%, 15.467834%, 30.085754%)" offset="0.835938"/><stop stop-opacity="1" stop-color="rgb(33.937073%, 15.618896%, 30.178833%)" offset="0.84375"/><stop stop-opacity="1" stop-color="rgb(34.248352%, 15.771484%, 30.271912%)" offset="0.851563"/><stop stop-opacity="1" stop-color="rgb(34.558105%, 15.922546%, 30.36499%)" offset="0.859375"/><stop stop-opacity="1" stop-color="rgb(34.869385%, 16.073608%, 30.458069%)" offset="0.867188"/><stop stop-opacity="1" stop-color="rgb(35.179138%, 16.22467%, 30.552673%)" offset="0.875"/><stop stop-opacity="1" stop-color="rgb(35.490417%, 16.375732%, 30.645752%)" offset="0.882813"/><stop stop-opacity="1" stop-color="rgb(35.800171%, 16.52832%, 30.738831%)" offset="0.890625"/><stop stop-opacity="1" stop-color="rgb(36.11145%, 16.679382%, 30.831909%)" offset="0.898438"/><stop stop-opacity="1" stop-color="rgb(36.422729%, 16.830444%, 30.924988%)" offset="0.90625"/><stop stop-opacity="1" stop-color="rgb(36.732483%, 16.981506%, 31.018066%)" offset="0.914063"/><stop stop-opacity="1" stop-color="rgb(37.043762%, 17.132568%, 31.111145%)" offset="0.921875"/><stop stop-opacity="1" stop-color="rgb(37.353516%, 17.28363%, 31.204224%)" offset="0.929688"/><stop stop-opacity="1" stop-color="rgb(37.664795%, 17.436218%, 31.298828%)" offset="0.9375"/><stop stop-opacity="1" stop-color="rgb(37.908936%, 17.555237%, 31.37207%)" offset="1"/></linearGradient></defs><g clip-path="url(#0629dbb6ba)"><g clip-path="url(#95d962a123)"><path fill="url(#54e570d4b5)" d="M 44.292969 44.292969 L 44.292969 330.78125 L 329.996094 330.78125 L 329.996094 44.292969 Z M 44.292969 44.292969 " fill-rule="nonzero"/></g></g><path fill="#ffffff" d="M 189.074219 167.394531 C 196.382812 167.394531 201.921875 165.832031 205.695312 162.632812 C 209.472656 159.4375 211.359375 154.78125 211.359375 148.589844 C 211.359375 142.480469 209.472656 137.839844 205.695312 134.667969 C 201.898438 131.414062 196.378906 129.785156 189.074219 129.785156 L 163.414062 129.785156 L 163.414062 167.394531 L 189.074219 167.394531 M 190.640625 245.113281 C 199.953125 245.113281 206.9375 243.171875 211.597656 239.28125 C 216.335938 235.394531 218.703125 229.523438 218.703125 221.667969 C 218.703125 213.96875 216.375 208.21875 211.71875 204.414062 C 207.058594 200.523438 200.035156 198.582031 190.640625 198.582031 L 163.417969 198.582031 L 163.417969 245.117188 L 190.640625 245.117188 M 233.761719 181.207031 C 243.71875 184.0625 251.429688 189.339844 256.886719 197.035156 C 262.347656 204.730469 265.078125 214.171875 265.078125 225.359375 C 265.078125 242.5 259.21875 255.273438 247.496094 263.683594 C 235.769531 272.09375 217.945312 276.300781 194.015625 276.300781 L 117.050781 276.300781 L 117.050781 98.652344 L 186.671875 98.652344 C 211.644531 98.652344 229.710938 102.378906 240.871094 109.835938 C 252.113281 117.296875 257.734375 129.238281 257.734375 145.660156 C 257.734375 154.3125 255.6875 161.6875 251.59375 167.796875 C 247.5 173.828125 241.535156 178.285156 233.765625 181.246094 " fill-opacity="1" fill-rule="nonzero"/></svg>