<svg xmlns="http://www.w3.org/2000/svg" xmlns:xlink="http://www.w3.org/1999/xlink" width="500" zoomAndPan="magnify" viewBox="0 0 375 374.999991" height="500" preserveAspectRatio="xMidYMid meet" version="1.0"><defs><clipPath id="02d29910af"><path d="M 70.1875 87 L 304.9375 87 L 304.9375 352.8125 L 70.1875 352.8125 Z M 70.1875 87 " clip-rule="nonzero"/></clipPath><clipPath id="37e0d4a449"><path d="M 125 22.0625 L 162 22.0625 L 162 67 L 125 67 Z M 125 22.0625 " clip-rule="nonzero"/></clipPath><clipPath id="f923f02106"><path d="M 168 22.0625 L 204 22.0625 L 204 68 L 168 68 Z M 168 22.0625 " clip-rule="nonzero"/></clipPath><clipPath id="e3c33594d5"><path d="M 210 22.0625 L 247 22.0625 L 247 68 L 210 68 Z M 210 22.0625 " clip-rule="nonzero"/></clipPath></defs><g clip-path="url(#02d29910af)"><path fill="#264de4" d="M 187.460938 352.800781 L 91.6875 326.238281 L 70.34375 87.0625 L 304.863281 87.058594 L 283.507812 326.199219 L 187.46875 352.796875 Z M 187.460938 352.800781 " fill-opacity="1" fill-rule="nonzero"/></g><path fill="#2965f1" d="M 265.21875 310.972656 L 283.476562 106.617188 L 187.609375 106.613281 L 187.609375 332.464844 L 265.21875 310.96875 Z M 265.21875 310.972656 " fill-opacity="1" fill-rule="nonzero"/><path fill="#ebebeb" d="M 119.273438 195.324219 L 121.90625 224.652344 L 187.609375 224.652344 L 187.609375 195.324219 Z M 119.273438 195.324219 " fill-opacity="1" fill-rule="nonzero"/><path fill="#ebebeb" d="M 113.988281 135.945312 L 116.65625 165.28125 L 187.609375 165.28125 L 187.609375 135.945312 Z M 113.988281 135.945312 " fill-opacity="1" fill-rule="nonzero"/><path fill="#ebebeb" d="M 187.609375 271.503906 L 187.480469 271.542969 L 154.78125 262.714844 L 152.691406 239.320312 L 123.21875 239.320312 L 127.332031 285.382812 L 187.472656 302.0625 L 187.609375 302.027344 Z M 187.609375 271.503906 " fill-opacity="1" fill-rule="nonzero"/><g clip-path="url(#37e0d4a449)"><path fill="#000000" d="M 125.539062 22.0625 L 161.101562 22.0625 L 161.101562 36.917969 L 140.410156 36.917969 L 140.410156 51.777344 L 161.101562 51.777344 L 161.101562 66.632812 L 125.539062 66.632812 Z M 125.539062 22.0625 " fill-opacity="1" fill-rule="nonzero"/></g><g clip-path="url(#f923f02106)"><path fill="#000000" d="M 168.210938 22.0625 L 203.769531 22.0625 L 203.769531 34.980469 L 183.085938 34.980469 L 183.085938 37.5625 L 203.769531 37.5625 L 203.769531 67.277344 L 168.210938 67.277344 L 168.210938 53.714844 L 188.90625 53.714844 L 188.90625 51.128906 L 168.210938 51.128906 Z M 168.210938 22.0625 " fill-opacity="1" fill-rule="nonzero"/></g><g clip-path="url(#e3c33594d5)"><path fill="#000000" d="M 210.886719 22.0625 L 246.445312 22.0625 L 246.445312 34.980469 L 225.753906 34.980469 L 225.753906 37.5625 L 246.445312 37.5625 L 246.445312 67.277344 L 210.886719 67.277344 L 210.886719 53.714844 L 231.570312 53.714844 L 231.570312 51.128906 L 210.886719 51.128906 Z M 210.886719 22.0625 " fill-opacity="1" fill-rule="nonzero"/></g><path fill="#ffffff" d="M 255.757812 195.324219 L 261.054688 135.945312 L 187.507812 135.945312 L 187.507812 165.28125 L 228.878906 165.28125 L 226.210938 195.324219 L 187.507812 195.324219 L 187.507812 224.652344 L 223.664062 224.652344 L 220.253906 262.695312 L 187.507812 271.53125 L 187.507812 302.046875 L 247.695312 285.382812 L 248.136719 280.425781 L 255.042969 203.195312 Z M 255.757812 195.324219 " fill-opacity="1" fill-rule="nonzero"/></svg>