<svg xmlns="http://www.w3.org/2000/svg" xmlns:xlink="http://www.w3.org/1999/xlink" width="500" zoomAndPan="magnify" viewBox="0 0 375 374.999991" height="500" preserveAspectRatio="xMidYMid meet" version="1.0"><defs><clipPath id="18b9db33af"><path d="M 74.402344 90 L 300.902344 90 L 300.902344 346.753906 L 74.402344 346.753906 Z M 74.402344 90 " clip-rule="nonzero"/></clipPath><clipPath id="e6559550d0"><path d="M 95 28.003906 L 138 28.003906 L 138 71 L 95 71 Z M 95 28.003906 " clip-rule="nonzero"/></clipPath><clipPath id="d8f3ec8cf6"><path d="M 143 28.003906 L 184 28.003906 L 184 71 L 143 71 Z M 143 28.003906 " clip-rule="nonzero"/></clipPath><clipPath id="3d45692918"><path d="M 189 28.003906 L 239 28.003906 L 239 71 L 189 71 Z M 189 28.003906 " clip-rule="nonzero"/></clipPath><clipPath id="1a59d3d677"><path d="M 245 28.003906 L 281 28.003906 L 281 71 L 245 71 Z M 245 28.003906 " clip-rule="nonzero"/></clipPath></defs><g clip-path="url(#18b9db33af)"><path fill="#e44d26" d="M 300.839844 90.644531 L 280.226562 321.105469 L 187.554688 346.742188 L 95.140625 321.140625 L 74.546875 90.644531 L 300.835938 90.640625 L 300.847656 90.640625 Z M 300.839844 90.644531 " fill-opacity="1" fill-rule="nonzero"/></g><path fill="#f16529" d="M 187.695312 327.148438 L 262.582031 306.433594 L 280.199219 109.492188 L 187.695312 109.488281 Z M 187.695312 327.148438 " fill-opacity="1" fill-rule="nonzero"/><path fill="#ebebeb" d="M 147.621094 166.027344 L 187.695312 166.027344 L 187.695312 137.757812 L 116.660156 137.757812 L 117.335938 145.34375 L 124.300781 223.246094 L 187.695312 223.246094 L 187.695312 194.984375 L 150.207031 194.984375 Z M 147.621094 166.027344 " fill-opacity="1" fill-rule="nonzero"/><path fill="#ebebeb" d="M 154.003906 237.382812 L 125.566406 237.382812 L 129.535156 281.773438 L 187.5625 297.847656 L 187.695312 297.8125 L 187.695312 268.398438 L 187.574219 268.433594 L 156.023438 259.925781 Z M 154.003906 237.382812 " fill-opacity="1" fill-rule="nonzero"/><g clip-path="url(#e6559550d0)"><path fill="#000000" d="M 95.601562 28.003906 L 110 28.003906 L 110 42.199219 L 123.167969 42.199219 L 123.167969 28.003906 L 137.566406 28.003906 L 137.566406 70.984375 L 123.171875 70.984375 L 123.171875 56.59375 L 110 56.59375 L 110 70.984375 L 95.601562 70.984375 Z M 95.601562 28.003906 " fill-opacity="1" fill-rule="nonzero"/></g><g clip-path="url(#d8f3ec8cf6)"><path fill="#000000" d="M 156.5 42.257812 L 143.824219 42.257812 L 143.824219 28.003906 L 183.582031 28.003906 L 183.582031 42.257812 L 170.894531 42.257812 L 170.894531 70.984375 L 156.5 70.984375 Z M 156.5 42.257812 " fill-opacity="1" fill-rule="nonzero"/></g><g clip-path="url(#3d45692918)"><path fill="#000000" d="M 189.886719 28.003906 L 204.898438 28.003906 L 214.132812 43.105469 L 223.355469 28.003906 L 238.375 28.003906 L 238.375 70.984375 L 224.039062 70.984375 L 224.039062 49.683594 L 214.132812 64.964844 L 213.882812 64.964844 L 203.976562 49.683594 L 203.976562 70.984375 L 189.886719 70.984375 Z M 189.886719 28.003906 " fill-opacity="1" fill-rule="nonzero"/></g><g clip-path="url(#1a59d3d677)"><path fill="#000000" d="M 245.542969 28.003906 L 259.9375 28.003906 L 259.9375 56.777344 L 280.191406 56.777344 L 280.191406 70.984375 L 245.542969 70.984375 Z M 245.542969 28.003906 " fill-opacity="1" fill-rule="nonzero"/></g><path fill="#ffffff" d="M 187.597656 223.246094 L 222.488281 223.246094 L 219.195312 259.910156 L 187.597656 268.425781 L 187.597656 297.832031 L 245.675781 281.773438 L 246.101562 276.992188 L 252.761719 202.570312 L 253.453125 194.984375 L 187.597656 194.984375 Z M 187.597656 223.246094 " fill-opacity="1" fill-rule="nonzero"/><path fill="#ffffff" d="M 187.597656 165.957031 L 187.597656 166.027344 L 256.027344 166.027344 L 256.59375 159.671875 L 257.890625 145.34375 L 258.5625 137.757812 L 187.597656 137.757812 Z M 187.597656 165.957031 " fill-opacity="1" fill-rule="nonzero"/></svg>