<svg xmlns="http://www.w3.org/2000/svg" xmlns:xlink="http://www.w3.org/1999/xlink" width="500" zoomAndPan="magnify" viewBox="0 0 375 374.999991" height="500" preserveAspectRatio="xMidYMid meet" version="1.0"><defs><clipPath id="aef467f41c"><path d="M 59.730469 59.730469 L 315.480469 59.730469 L 315.480469 315.480469 L 59.730469 315.480469 Z M 59.730469 59.730469 " clip-rule="nonzero"/></clipPath></defs><g clip-path="url(#aef467f41c)"><path fill="#ffd600" d="M 59.730469 59.730469 L 315.480469 59.730469 L 315.480469 315.480469 L 59.730469 315.480469 Z M 59.730469 59.730469 " fill-opacity="1" fill-rule="nonzero"/></g><path fill="#000001" d="M 226.949219 251.167969 C 231.863281 259.152344 237.207031 266.804688 248.523438 266.804688 C 258.03125 266.804688 263.015625 262.078125 263.015625 255.542969 C 263.015625 247.722656 257.859375 244.945312 247.402344 240.390625 L 241.667969 237.945312 C 225.121094 230.925781 214.117188 222.132812 214.117188 203.554688 C 214.117188 186.433594 227.226562 173.40625 247.707031 173.40625 C 262.292969 173.40625 272.769531 178.457031 280.328125 191.683594 L 262.46875 203.101562 C 258.539062 196.082031 254.292969 193.316406 247.707031 193.316406 C 240.988281 193.316406 236.730469 197.558594 236.730469 203.101562 C 236.730469 209.949219 240.992188 212.71875 250.832031 216.960938 L 256.566406 219.402344 C 276.066406 227.707031 287.0625 236.191406 287.0625 255.257812 C 287.0625 275.804688 270.839844 287.0625 249.058594 287.0625 C 227.75 287.0625 215.652344 276.371094 208.917969 263.136719 Z M 144.640625 251.75 C 148.234375 258.1875 153.699219 263.136719 161.554688 263.136719 C 169.070312 263.136719 173.398438 260.167969 173.398438 248.625 L 173.398438 173.398438 L 197.074219 173.398438 L 197.074219 252.261719 C 197.074219 276.179688 183.199219 287.0625 162.941406 287.0625 C 144.632812 287.0625 131.417969 274.660156 126.035156 263.136719 Z M 144.640625 251.75 " fill-opacity="1" fill-rule="nonzero"/></svg>