<svg xmlns="http://www.w3.org/2000/svg" xmlns:xlink="http://www.w3.org/1999/xlink" width="500" zoomAndPan="magnify" viewBox="0 0 375 374.999991" height="500" preserveAspectRatio="xMidYMid meet" version="1.0"><defs><clipPath id="1d2d7e4dea"><path d="M 20 208 L 159 208 L 159 275.902344 L 20 275.902344 Z M 20 208 " clip-rule="nonzero"/></clipPath></defs><g clip-path="url(#1d2d7e4dea)"><path fill="#00618a" d="M 20.117188 260.609375 L 31.152344 260.609375 L 31.152344 217.117188 L 48.242188 255.042969 C 50.257812 259.617188 53.019531 261.257812 58.429688 261.257812 C 63.839844 261.257812 66.496094 259.632812 68.515625 255.042969 L 85.601562 217.117188 L 85.601562 260.625 L 96.640625 260.625 L 96.640625 217.191406 C 96.640625 212.953125 94.941406 210.902344 91.441406 209.847656 C 83.054688 207.234375 77.429688 209.492188 74.882812 215.144531 L 58.117188 252.574219 L 41.875 215.125 C 39.433594 209.476562 33.703125 207.21875 25.320312 209.828125 C 21.816406 210.890625 20.117188 212.9375 20.117188 217.175781 Z M 105.816406 225.199219 L 116.851562 225.199219 L 116.851562 249.167969 C 116.746094 250.472656 117.269531 253.527344 123.316406 253.621094 C 126.402344 253.667969 147.125 253.621094 147.320312 253.621094 L 147.320312 225.078125 L 158.378906 225.078125 C 158.425781 225.078125 158.367188 263.996094 158.367188 264.164062 C 158.429688 273.761719 146.433594 275.84375 140.910156 276.007812 L 106.058594 276.007812 L 106.058594 268.59375 L 140.972656 268.59375 C 148.074219 267.839844 147.238281 264.320312 147.238281 263.132812 L 147.238281 260.242188 L 123.777344 260.242188 C 112.863281 260.144531 105.914062 255.386719 105.828125 249.917969 C 105.816406 249.429688 106.0625 225.433594 105.820312 225.195312 Z M 105.816406 225.199219 " fill-opacity="1" fill-rule="nonzero"/></g><path fill="#e48e00" d="M 166.886719 260.609375 L 198.621094 260.609375 C 202.332031 260.609375 205.945312 259.832031 208.8125 258.488281 C 213.589844 256.300781 215.921875 253.332031 215.921875 249.449219 L 215.921875 241.398438 C 215.921875 238.21875 213.269531 235.253906 208.070312 233.277344 C 205.3125 232.214844 201.914062 231.652344 198.625 231.652344 L 185.25 231.652344 C 180.792969 231.652344 178.671875 230.308594 178.140625 227.34375 C 178.035156 226.992188 178.035156 226.691406 178.035156 226.355469 L 178.035156 221.34375 C 178.035156 221.058594 178.035156 220.777344 178.140625 220.421875 C 178.671875 218.164062 179.839844 217.527344 183.765625 217.15625 C 184.085938 217.15625 184.507812 217.085938 184.828125 217.085938 L 216.351562 217.085938 L 216.351562 209.742188 L 185.359375 209.742188 C 180.902344 209.742188 178.566406 210.027344 176.441406 210.660156 C 169.855469 212.710938 166.988281 215.976562 166.988281 221.625 L 166.988281 228.050781 C 166.988281 232.996094 172.613281 237.234375 182.058594 238.222656 C 183.121094 238.292969 184.179688 238.363281 185.242188 238.363281 L 196.703125 238.363281 C 197.128906 238.363281 197.554688 238.363281 197.871094 238.433594 C 201.375 238.714844 202.863281 239.351562 203.921875 240.621094 C 204.578125 241.273438 204.773438 241.894531 204.773438 242.582031 L 204.773438 249.007812 C 204.773438 249.785156 204.242188 250.773438 203.179688 251.621094 C 202.226562 252.46875 200.632812 253.03125 198.511719 253.175781 C 198.085938 253.175781 197.765625 253.246094 197.34375 253.246094 L 166.882812 253.246094 L 166.882812 260.589844 Z M 284.777344 247.824219 C 284.777344 255.382812 290.402344 259.621094 301.757812 260.46875 C 302.820312 260.550781 303.878906 260.597656 304.941406 260.609375 L 333.707031 260.609375 L 333.707031 253.261719 L 304.730469 253.261719 C 298.257812 253.261719 295.8125 251.636719 295.8125 247.753906 L 295.8125 209.757812 L 284.777344 209.757812 Z M 222.964844 248.207031 L 222.964844 222.027344 C 222.964844 215.375 227.644531 211.339844 236.894531 210.066406 C 237.882812 209.925781 238.875 209.851562 239.875 209.851562 L 260.828125 209.851562 C 261.859375 209.851562 262.886719 209.925781 263.910156 210.066406 C 273.164062 211.339844 277.84375 215.371094 277.84375 222.027344 L 277.84375 248.207031 C 277.84375 253.605469 275.855469 256.492188 271.273438 258.375 L 282.148438 268.171875 L 269.332031 268.171875 L 260.535156 260.246094 L 251.679688 260.808594 L 239.875 260.808594 C 237.855469 260.808594 235.726562 260.523438 233.386719 259.886719 C 226.351562 257.976562 222.964844 254.296875 222.964844 248.207031 Z M 234.878906 247.554688 C 234.878906 247.910156 234.984375 248.261719 235.089844 248.6875 C 235.746094 251.730469 238.601562 253.429688 242.945312 253.429688 L 252.972656 253.429688 L 243.761719 245.128906 L 256.578125 245.128906 L 264.59375 252.367188 C 266.074219 251.582031 267.046875 250.375 267.375 248.832031 C 267.480469 248.476562 267.480469 248.125 267.480469 247.769531 L 267.480469 222.664062 C 267.480469 222.382812 267.480469 222.011719 267.375 221.671875 C 266.71875 218.84375 263.863281 217.214844 259.609375 217.214844 L 242.972656 217.214844 C 238.066406 217.214844 234.890625 219.335938 234.890625 222.664062 L 234.890625 247.574219 Z M 234.878906 247.554688 " fill-opacity="1" fill-rule="nonzero"/><path fill="#00618a" d="M 343.410156 197.574219 C 336.625 197.390625 331.441406 198.019531 327.011719 199.882812 C 325.75 200.414062 323.746094 200.429688 323.539062 202.003906 C 324.230469 202.726562 324.339844 203.808594 324.886719 204.699219 C 325.945312 206.40625 327.734375 208.699219 329.324219 209.898438 C 331.066406 211.207031 332.859375 212.613281 334.730469 213.75 C 338.050781 215.773438 341.757812 216.925781 344.953125 218.949219 C 346.839844 220.140625 348.710938 221.644531 350.550781 222.992188 C 351.457031 223.660156 352.070312 224.695312 353.25 225.109375 L 353.25 224.917969 C 352.625 224.128906 352.46875 223.042969 351.898438 222.222656 L 349.390625 219.71875 C 346.9375 216.453125 343.824219 213.617188 340.515625 211.246094 C 337.878906 209.355469 331.96875 206.800781 330.867188 203.734375 L 330.675781 203.542969 C 332.546875 203.328125 334.738281 202.65625 336.46875 202.195312 C 339.367188 201.417969 341.960938 201.617188 344.957031 200.847656 L 349.007812 199.691406 L 349.007812 198.921875 C 347.496094 197.371094 346.414062 195.316406 344.765625 193.914062 C 340.445312 190.242188 335.730469 186.574219 330.875 183.511719 C 328.183594 181.816406 324.855469 180.714844 322 179.277344 C 321.039062 178.792969 319.351562 178.542969 318.71875 177.734375 C 317.222656 175.828125 316.40625 173.40625 315.25 171.203125 C 312.828125 166.550781 310.449219 161.464844 308.300781 156.566406 C 306.839844 153.230469 305.882812 149.933594 304.058594 146.9375 C 295.296875 132.5625 285.867188 123.886719 271.261719 115.359375 C 268.152344 113.546875 264.414062 112.828125 260.457031 111.894531 L 254.089844 111.507812 C 252.792969 110.96875 251.445312 109.386719 250.230469 108.617188 C 245.390625 105.566406 232.976562 98.929688 229.394531 107.636719 C 227.128906 113.144531 232.773438 118.519531 234.796875 121.3125 C 236.210938 123.269531 238.027344 125.464844 239.039062 127.667969 C 239.703125 129.113281 239.820312 130.566406 240.390625 132.097656 C 241.792969 135.851562 243.011719 139.972656 244.828125 143.457031 C 245.742188 145.222656 246.753906 147.078125 247.914062 148.65625 C 248.625 149.625 249.84375 150.050781 250.035156 151.546875 C 248.84375 153.210938 248.777344 155.792969 248.105469 157.902344 C 245.089844 167.390625 246.226562 179.1875 250.613281 186.210938 C 251.960938 188.367188 255.128906 192.992188 259.488281 191.21875 C 263.300781 189.664062 262.433594 184.867188 263.539062 180.625 C 263.785156 179.664062 263.636719 178.960938 264.121094 178.316406 L 264.121094 178.507812 L 267.59375 185.441406 C 270.160156 189.570312 274.726562 193.890625 278.589844 196.804688 C 280.59375 198.316406 282.1875 200.925781 284.761719 201.8125 L 284.761719 201.617188 L 284.570312 201.617188 C 284.066406 200.835938 283.28125 200.511719 282.640625 199.886719 C 281.128906 198.410156 279.449219 196.574219 278.203125 194.882812 C 274.683594 190.117188 271.578125 184.90625 268.75 179.476562 C 267.398438 176.882812 266.222656 174.023438 265.085938 171.386719 C 264.644531 170.371094 264.652344 168.835938 263.734375 168.304688 C 262.488281 170.238281 260.648438 171.800781 259.683594 174.082031 C 258.136719 177.730469 257.9375 182.179688 257.367188 186.792969 C 257.027344 186.914062 257.179688 186.832031 256.980469 186.984375 C 254.296875 186.339844 253.351562 183.578125 252.351562 181.210938 C 249.828125 175.214844 249.359375 165.574219 251.578125 158.679688 C 252.152344 156.894531 254.753906 151.277344 253.703125 149.628906 C 253.199219 147.984375 251.542969 147.015625 250.613281 145.773438 C 249.46875 144.222656 248.320312 142.175781 247.527344 140.382812 C 245.460938 135.714844 244.496094 130.472656 242.320312 125.75 C 241.277344 123.492188 239.519531 121.207031 238.074219 119.21875 C 236.476562 116.996094 234.683594 115.355469 233.445312 112.683594 C 233.003906 111.730469 232.40625 110.203125 233.058594 109.21875 C 233.125 108.929688 233.261719 108.679688 233.46875 108.472656 C 233.679688 108.261719 233.929688 108.125 234.21875 108.0625 C 235.335938 107.203125 238.453125 108.347656 239.621094 108.832031 C 242.710938 110.117188 245.296875 111.339844 247.917969 113.070312 C 249.175781 113.886719 250.449219 115.511719 251.96875 115.960938 L 253.703125 115.960938 C 256.417969 116.585938 259.460938 116.15625 261.996094 116.925781 C 266.480469 118.285156 270.5 120.402344 274.152344 122.703125 C 285.273438 129.710938 294.363281 139.6875 300.582031 151.601562 C 301.582031 153.519531 302.015625 155.347656 302.898438 157.378906 C 304.675781 161.460938 306.914062 165.695312 308.683594 169.703125 C 310.453125 173.703125 312.171875 177.734375 314.667969 181.0625 C 315.976562 182.8125 321.046875 183.75 323.347656 184.722656 C 324.964844 185.402344 327.605469 186.113281 329.136719 187.03125 C 332.054688 188.789062 334.886719 190.886719 337.625 192.8125 C 338.996094 193.777344 343.207031 195.886719 343.414062 197.625 Z M 343.410156 197.574219 " fill-opacity="1" fill-rule="nonzero"/><path fill="#00618a" d="M 257.179688 124.207031 C 255.765625 124.179688 254.765625 124.359375 253.707031 124.59375 L 253.707031 124.785156 L 253.898438 124.785156 C 254.574219 126.167969 255.765625 127.058594 256.597656 128.25 L 258.53125 132.292969 L 258.722656 132.101562 C 259.917969 131.261719 260.464844 129.917969 260.457031 127.863281 C 259.976562 127.363281 259.90625 126.730469 259.492188 126.128906 C 258.941406 125.332031 257.855469 124.875 257.175781 124.203125 Z M 257.179688 124.207031 " fill-opacity="1" fill-rule="evenodd"/><path fill="#e48e00" d="M 338.894531 253.054688 C 338.894531 257.902344 342.734375 261.171875 347.027344 261.171875 C 351.324219 261.171875 355.164062 257.902344 355.164062 253.054688 C 355.164062 248.203125 351.324219 244.9375 347.027344 244.9375 C 342.734375 244.9375 338.894531 248.203125 338.894531 253.054688 Z M 353.339844 253.054688 C 353.339844 256.734375 350.519531 259.484375 347.023438 259.484375 C 343.492188 259.484375 340.710938 256.734375 340.710938 253.054688 C 340.710938 249.375 343.488281 246.625 347.023438 246.625 C 350.519531 246.625 353.339844 249.375 353.339844 253.054688 Z M 349.21875 257.6875 L 351.039062 257.6875 L 348.371094 253.621094 C 349.804688 253.46875 350.886719 252.773438 350.886719 251.085938 C 350.886719 249.199219 349.691406 248.421875 347.394531 248.421875 L 343.769531 248.421875 L 343.769531 257.691406 L 345.332031 257.691406 L 345.332031 253.683594 L 346.785156 253.683594 L 349.214844 257.691406 Z M 345.332031 252.382812 L 345.332031 249.71875 L 347.132812 249.71875 C 348.066406 249.71875 349.195312 249.894531 349.195312 250.976562 C 349.195312 252.277344 348.175781 252.386719 347.003906 252.386719 L 345.332031 252.386719 Z M 345.332031 252.382812 " fill-opacity="1" fill-rule="evenodd"/></svg>