<svg xmlns="http://www.w3.org/2000/svg" xmlns:xlink="http://www.w3.org/1999/xlink" width="500" zoomAndPan="magnify" viewBox="0 0 375 374.999991" height="500" preserveAspectRatio="xMidYMid meet" version="1.0"><defs><clipPath id="58489a4e23"><path d="M 5.53125 93 L 369.28125 93 L 369.28125 281.875 L 5.53125 281.875 Z M 5.53125 93 " clip-rule="nonzero"/></clipPath><clipPath id="ebe6341ba7"><path d="M 5.53125 187.40625 C 5.53125 239.480469 86.960938 281.695312 187.402344 281.695312 C 287.839844 281.695312 369.269531 239.480469 369.269531 187.40625 C 369.269531 135.332031 287.839844 93.113281 187.402344 93.113281 C 86.960938 93.113281 5.53125 135.332031 5.53125 187.40625 " clip-rule="nonzero"/></clipPath><clipPath id="cf79a84cc8"><path d="M 5.53125 187.40625 C 5.53125 239.480469 86.960938 281.695312 187.402344 281.695312 C 287.839844 281.695312 369.269531 239.480469 369.269531 187.40625 C 369.269531 135.332031 287.839844 93.113281 187.402344 93.113281 C 86.960938 93.113281 5.53125 135.332031 5.53125 187.40625 " clip-rule="nonzero"/></clipPath><radialGradient gradientTransform="matrix(1.007269, 0, 0, 0.992731, 114.726824, 126.263247)" gradientUnits="userSpaceOnUse" r="237.099364" cx="0" id="2cac63ea67" cy="0" fx="0" fy="0"><stop stop-opacity="1" stop-color="rgb(68.199158%, 69.799805%, 83.499146%)" offset="0"/><stop stop-opacity="1" stop-color="rgb(68.199158%, 69.799805%, 83.499146%)" offset="0.25"/><stop stop-opacity="1" stop-color="rgb(68.164062%, 69.764709%, 83.473206%)" offset="0.296875"/><stop stop-opacity="1" stop-color="rgb(67.956543%, 69.555664%, 83.317566%)" offset="0.300781"/><stop stop-opacity="1" stop-color="rgb(67.608643%, 69.20929%, 83.059692%)" offset="0.304688"/><stop stop-opacity="1" stop-color="rgb(67.260742%, 68.861389%, 82.800293%)" offset="0.308594"/><stop stop-opacity="1" stop-color="rgb(66.914368%, 68.513489%, 82.542419%)" offset="0.3125"/><stop stop-opacity="1" stop-color="rgb(66.566467%, 68.167114%, 82.28302%)" offset="0.316406"/><stop stop-opacity="1" stop-color="rgb(66.220093%, 67.819214%, 82.025146%)" offset="0.320312"/><stop stop-opacity="1" stop-color="rgb(65.872192%, 67.472839%, 81.765747%)" offset="0.324219"/><stop stop-opacity="1" stop-color="rgb(65.525818%, 67.124939%, 81.506348%)" offset="0.328125"/><stop stop-opacity="1" stop-color="rgb(65.177917%, 66.778564%, 81.248474%)" offset="0.332031"/><stop stop-opacity="1" stop-color="rgb(64.831543%, 66.430664%, 80.989075%)" offset="0.335938"/><stop stop-opacity="1" stop-color="rgb(64.483643%, 66.08429%, 80.731201%)" offset="0.339844"/><stop stop-opacity="1" stop-color="rgb(64.135742%, 65.736389%, 80.471802%)" offset="0.34375"/><stop stop-opacity="1" stop-color="rgb(63.789368%, 65.388489%, 80.213928%)" offset="0.347656"/><stop stop-opacity="1" stop-color="rgb(63.441467%, 65.042114%, 79.954529%)" offset="0.351562"/><stop stop-opacity="1" stop-color="rgb(63.095093%, 64.694214%, 79.696655%)" offset="0.355469"/><stop stop-opacity="1" stop-color="rgb(62.747192%, 64.347839%, 79.437256%)" offset="0.359375"/><stop stop-opacity="1" stop-color="rgb(62.400818%, 63.999939%, 79.179382%)" offset="0.363281"/><stop stop-opacity="1" stop-color="rgb(62.052917%, 63.653564%, 78.919983%)" offset="0.367188"/><stop stop-opacity="1" stop-color="rgb(61.706543%, 63.305664%, 78.662109%)" offset="0.371094"/><stop stop-opacity="1" stop-color="rgb(61.358643%, 62.95929%, 78.40271%)" offset="0.375"/><stop stop-opacity="1" stop-color="rgb(61.010742%, 62.611389%, 78.144836%)" offset="0.378906"/><stop stop-opacity="1" stop-color="rgb(60.664368%, 62.263489%, 77.885437%)" offset="0.382812"/><stop stop-opacity="1" stop-color="rgb(60.316467%, 61.917114%, 77.627563%)" offset="0.386719"/><stop stop-opacity="1" stop-color="rgb(59.970093%, 61.569214%, 77.368164%)" offset="0.390625"/><stop stop-opacity="1" stop-color="rgb(59.622192%, 61.222839%, 77.108765%)" offset="0.394531"/><stop stop-opacity="1" stop-color="rgb(59.275818%, 60.874939%, 76.850891%)" offset="0.398438"/><stop stop-opacity="1" stop-color="rgb(58.927917%, 60.528564%, 76.591492%)" offset="0.402344"/><stop stop-opacity="1" stop-color="rgb(58.581543%, 60.180664%, 76.333618%)" offset="0.40625"/><stop stop-opacity="1" stop-color="rgb(58.233643%, 59.83429%, 76.074219%)" offset="0.410156"/><stop stop-opacity="1" stop-color="rgb(57.885742%, 59.486389%, 75.816345%)" offset="0.414062"/><stop stop-opacity="1" stop-color="rgb(57.539368%, 59.138489%, 75.556946%)" offset="0.417969"/><stop stop-opacity="1" stop-color="rgb(57.191467%, 58.792114%, 75.299072%)" offset="0.421875"/><stop stop-opacity="1" stop-color="rgb(56.845093%, 58.444214%, 75.039673%)" offset="0.425781"/><stop stop-opacity="1" stop-color="rgb(56.497192%, 58.097839%, 74.781799%)" offset="0.429688"/><stop stop-opacity="1" stop-color="rgb(56.150818%, 57.749939%, 74.5224%)" offset="0.433594"/><stop stop-opacity="1" stop-color="rgb(55.802917%, 57.403564%, 74.264526%)" offset="0.4375"/><stop stop-opacity="1" stop-color="rgb(55.456543%, 57.055664%, 74.005127%)" offset="0.441406"/><stop stop-opacity="1" stop-color="rgb(55.108643%, 56.70929%, 73.747253%)" offset="0.445312"/><stop stop-opacity="1" stop-color="rgb(54.760742%, 56.361389%, 73.487854%)" offset="0.449219"/><stop stop-opacity="1" stop-color="rgb(54.414368%, 56.013489%, 73.22998%)" offset="0.453125"/><stop stop-opacity="1" stop-color="rgb(54.066467%, 55.667114%, 72.970581%)" offset="0.457031"/><stop stop-opacity="1" stop-color="rgb(53.720093%, 55.319214%, 72.711182%)" offset="0.460938"/><stop stop-opacity="1" stop-color="rgb(53.372192%, 54.972839%, 72.453308%)" offset="0.464844"/><stop stop-opacity="1" stop-color="rgb(53.025818%, 54.624939%, 72.193909%)" offset="0.46875"/><stop stop-opacity="1" stop-color="rgb(52.677917%, 54.278564%, 71.936035%)" offset="0.472656"/><stop stop-opacity="1" stop-color="rgb(52.331543%, 53.930664%, 71.676636%)" offset="0.476562"/><stop stop-opacity="1" stop-color="rgb(51.983643%, 53.58429%, 71.418762%)" offset="0.480469"/><stop stop-opacity="1" stop-color="rgb(51.635742%, 53.236389%, 71.159363%)" offset="0.484375"/><stop stop-opacity="1" stop-color="rgb(51.289368%, 52.888489%, 70.901489%)" offset="0.488281"/><stop stop-opacity="1" stop-color="rgb(50.941467%, 52.542114%, 70.64209%)" offset="0.492188"/><stop stop-opacity="1" stop-color="rgb(50.595093%, 52.194214%, 70.384216%)" offset="0.496094"/><stop stop-opacity="1" stop-color="rgb(50.247192%, 51.847839%, 70.124817%)" offset="0.5"/><stop stop-opacity="1" stop-color="rgb(49.900818%, 51.499939%, 69.866943%)" offset="0.503906"/><stop stop-opacity="1" stop-color="rgb(49.552917%, 51.153564%, 69.607544%)" offset="0.507812"/><stop stop-opacity="1" stop-color="rgb(49.206543%, 50.805664%, 69.34967%)" offset="0.511719"/><stop stop-opacity="1" stop-color="rgb(48.858643%, 50.45929%, 69.090271%)" offset="0.515625"/><stop stop-opacity="1" stop-color="rgb(48.510742%, 50.111389%, 68.832397%)" offset="0.519531"/><stop stop-opacity="1" stop-color="rgb(48.164368%, 49.763489%, 68.572998%)" offset="0.523438"/><stop stop-opacity="1" stop-color="rgb(47.816467%, 49.417114%, 68.313599%)" offset="0.527344"/><stop stop-opacity="1" stop-color="rgb(47.470093%, 49.069214%, 68.055725%)" offset="0.53125"/><stop stop-opacity="1" stop-color="rgb(47.122192%, 48.722839%, 67.796326%)" offset="0.535156"/><stop stop-opacity="1" stop-color="rgb(46.775818%, 48.374939%, 67.538452%)" offset="0.539062"/><stop stop-opacity="1" stop-color="rgb(46.427917%, 48.028564%, 67.279053%)" offset="0.542969"/><stop stop-opacity="1" stop-color="rgb(46.081543%, 47.680664%, 67.021179%)" offset="0.546875"/><stop stop-opacity="1" stop-color="rgb(45.733643%, 47.33429%, 66.76178%)" offset="0.550781"/><stop stop-opacity="1" stop-color="rgb(45.385742%, 46.986389%, 66.503906%)" offset="0.554688"/><stop stop-opacity="1" stop-color="rgb(45.039368%, 46.638489%, 66.244507%)" offset="0.558594"/><stop stop-opacity="1" stop-color="rgb(44.691467%, 46.292114%, 65.986633%)" offset="0.5625"/><stop stop-opacity="1" stop-color="rgb(44.345093%, 45.944214%, 65.727234%)" offset="0.566406"/><stop stop-opacity="1" stop-color="rgb(43.997192%, 45.597839%, 65.46936%)" offset="0.570312"/><stop stop-opacity="1" stop-color="rgb(43.650818%, 45.249939%, 65.209961%)" offset="0.574219"/><stop stop-opacity="1" stop-color="rgb(43.302917%, 44.903564%, 64.952087%)" offset="0.578125"/><stop stop-opacity="1" stop-color="rgb(42.956543%, 44.555664%, 64.692688%)" offset="0.582031"/><stop stop-opacity="1" stop-color="rgb(42.608643%, 44.20929%, 64.434814%)" offset="0.585938"/><stop stop-opacity="1" stop-color="rgb(42.260742%, 43.861389%, 64.175415%)" offset="0.589844"/><stop stop-opacity="1" stop-color="rgb(41.914368%, 43.513489%, 63.916016%)" offset="0.59375"/><stop stop-opacity="1" stop-color="rgb(41.566467%, 43.167114%, 63.658142%)" offset="0.597656"/><stop stop-opacity="1" stop-color="rgb(41.220093%, 42.819214%, 63.398743%)" offset="0.601562"/><stop stop-opacity="1" stop-color="rgb(40.872192%, 42.472839%, 63.140869%)" offset="0.605469"/><stop stop-opacity="1" stop-color="rgb(40.525818%, 42.124939%, 62.88147%)" offset="0.609375"/><stop stop-opacity="1" stop-color="rgb(40.177917%, 41.778564%, 62.623596%)" offset="0.613281"/><stop stop-opacity="1" stop-color="rgb(39.831543%, 41.430664%, 62.364197%)" offset="0.617188"/><stop stop-opacity="1" stop-color="rgb(39.483643%, 41.08429%, 62.106323%)" offset="0.621094"/><stop stop-opacity="1" stop-color="rgb(39.135742%, 40.736389%, 61.846924%)" offset="0.625"/><stop stop-opacity="1" stop-color="rgb(38.789368%, 40.388489%, 61.58905%)" offset="0.628906"/><stop stop-opacity="1" stop-color="rgb(38.441467%, 40.042114%, 61.329651%)" offset="0.632812"/><stop stop-opacity="1" stop-color="rgb(38.095093%, 39.694214%, 61.071777%)" offset="0.636719"/><stop stop-opacity="1" stop-color="rgb(37.747192%, 39.347839%, 60.812378%)" offset="0.640625"/><stop stop-opacity="1" stop-color="rgb(37.400818%, 38.999939%, 60.554504%)" offset="0.644531"/><stop stop-opacity="1" stop-color="rgb(37.052917%, 38.653564%, 60.295105%)" offset="0.648438"/><stop stop-opacity="1" stop-color="rgb(36.706543%, 38.305664%, 60.037231%)" offset="0.652344"/><stop stop-opacity="1" stop-color="rgb(36.358643%, 37.95929%, 59.777832%)" offset="0.65625"/><stop stop-opacity="1" stop-color="rgb(36.010742%, 37.611389%, 59.518433%)" offset="0.660156"/><stop stop-opacity="1" stop-color="rgb(35.664368%, 37.263489%, 59.260559%)" offset="0.664062"/><stop stop-opacity="1" stop-color="rgb(35.316467%, 36.917114%, 59.00116%)" offset="0.667969"/><stop stop-opacity="1" stop-color="rgb(34.970093%, 36.569214%, 58.743286%)" offset="0.671875"/><stop stop-opacity="1" stop-color="rgb(34.622192%, 36.222839%, 58.483887%)" offset="0.675781"/><stop stop-opacity="1" stop-color="rgb(34.275818%, 35.874939%, 58.226013%)" offset="0.679688"/><stop stop-opacity="1" stop-color="rgb(33.927917%, 35.528564%, 57.966614%)" offset="0.683594"/><stop stop-opacity="1" stop-color="rgb(33.581543%, 35.180664%, 57.70874%)" offset="0.6875"/><stop stop-opacity="1" stop-color="rgb(33.233643%, 34.83429%, 57.449341%)" offset="0.691406"/><stop stop-opacity="1" stop-color="rgb(32.885742%, 34.486389%, 57.191467%)" offset="0.695312"/><stop stop-opacity="1" stop-color="rgb(32.539368%, 34.138489%, 56.932068%)" offset="0.699219"/><stop stop-opacity="1" stop-color="rgb(32.191467%, 33.792114%, 56.674194%)" offset="0.703125"/><stop stop-opacity="1" stop-color="rgb(31.845093%, 33.444214%, 56.414795%)" offset="0.707031"/><stop stop-opacity="1" stop-color="rgb(31.497192%, 33.097839%, 56.156921%)" offset="0.710938"/><stop stop-opacity="1" stop-color="rgb(31.150818%, 32.749939%, 55.897522%)" offset="0.714844"/><stop stop-opacity="1" stop-color="rgb(30.802917%, 32.403564%, 55.639648%)" offset="0.71875"/><stop stop-opacity="1" stop-color="rgb(30.456543%, 32.055664%, 55.380249%)" offset="0.722656"/><stop stop-opacity="1" stop-color="rgb(30.108643%, 31.70929%, 55.122375%)" offset="0.726562"/><stop stop-opacity="1" stop-color="rgb(29.760742%, 31.361389%, 54.862976%)" offset="0.730469"/><stop stop-opacity="1" stop-color="rgb(29.414368%, 31.013489%, 54.603577%)" offset="0.734375"/><stop stop-opacity="1" stop-color="rgb(29.066467%, 30.667114%, 54.345703%)" offset="0.738281"/><stop stop-opacity="1" stop-color="rgb(28.720093%, 30.319214%, 54.086304%)" offset="0.742188"/><stop stop-opacity="1" stop-color="rgb(28.372192%, 29.972839%, 53.82843%)" offset="0.746094"/><stop stop-opacity="1" stop-color="rgb(28.199768%, 29.798889%, 53.69873%)" offset="1"/></radialGradient></defs><g clip-path="url(#58489a4e23)"><g clip-path="url(#ebe6341ba7)"><g clip-path="url(#cf79a84cc8)"><path fill="url(#2cac63ea67)" d="M 5.53125 93.113281 L 5.53125 281.695312 L 369.269531 281.695312 L 369.269531 93.113281 Z M 5.53125 93.113281 " fill-rule="nonzero"/></g></g></g><path fill="#777bb3" d="M 187.402344 274.695312 C 283.921875 274.695312 362.167969 235.613281 362.167969 187.40625 C 362.167969 139.195312 283.921875 100.117188 187.402344 100.117188 C 90.882812 100.117188 12.636719 139.195312 12.636719 187.40625 C 12.636719 235.613281 90.882812 274.695312 187.402344 274.695312 " fill-opacity="1" fill-rule="nonzero"/><path fill="#000000" d="M 104.339844 198.226562 C 112.277344 198.226562 118.203125 196.785156 121.949219 193.941406 C 125.660156 191.125 128.21875 186.25 129.5625 179.449219 C 130.8125 173.089844 130.335938 168.652344 128.144531 166.257812 C 125.902344 163.808594 121.058594 162.570312 113.742188 162.570312 L 101.0625 162.570312 L 94.03125 198.226562 Z M 62.859375 242.152344 C 62.269531 242.152344 61.710938 241.890625 61.335938 241.441406 C 60.941406 240.972656 60.804688 240.433594 60.921875 239.835938 L 79.554688 145.34375 C 79.601562 145.121094 79.679688 144.914062 79.796875 144.71875 C 79.914062 144.527344 80.0625 144.359375 80.238281 144.214844 C 80.414062 144.070312 80.613281 143.960938 80.828125 143.882812 C 81.042969 143.808594 81.265625 143.769531 81.492188 143.769531 L 121.65625 143.769531 C 134.277344 143.769531 143.671875 147.140625 149.578125 153.8125 C 155.515625 160.507812 157.347656 169.871094 155.027344 181.636719 C 154.082031 186.429688 152.457031 190.882812 150.199219 194.867188 C 147.933594 198.859375 144.945312 202.550781 141.3125 205.84375 C 136.957031 209.859375 132.03125 212.769531 126.683594 214.480469 C 121.417969 216.171875 114.660156 217.03125 106.589844 217.03125 L 90.328125 217.03125 L 85.683594 240.578125 C 85.640625 240.800781 85.558594 241.007812 85.441406 241.203125 C 85.324219 241.394531 85.179688 241.5625 85 241.707031 C 84.824219 241.851562 84.628906 241.960938 84.414062 242.039062 C 84.199219 242.113281 83.976562 242.152344 83.746094 242.152344 L 62.855469 242.152344 Z M 62.859375 242.152344 " fill-opacity="1" fill-rule="nonzero"/><path fill="#ffffff" d="M 102.6875 164.511719 L 113.746094 164.511719 C 122.574219 164.511719 125.640625 166.421875 126.683594 167.5625 C 128.410156 169.449219 128.738281 173.433594 127.625 179.078125 C 126.378906 185.398438 124.0625 189.882812 120.746094 192.398438 C 117.351562 194.976562 111.832031 196.28125 104.339844 196.28125 L 96.429688 196.28125 L 102.691406 164.511719 Z M 121.652344 141.824219 L 81.496094 141.824219 C 81.035156 141.824219 80.59375 141.898438 80.160156 142.050781 C 79.730469 142.203125 79.335938 142.425781 78.984375 142.710938 C 78.632812 143 78.335938 143.335938 78.101562 143.722656 C 77.867188 144.113281 77.707031 144.527344 77.621094 144.96875 L 58.988281 239.46875 C 58.929688 239.75 58.90625 240.035156 58.917969 240.320312 C 58.925781 240.605469 58.964844 240.890625 59.035156 241.167969 C 59.109375 241.445312 59.210938 241.710938 59.339844 241.96875 C 59.472656 242.222656 59.628906 242.460938 59.816406 242.683594 C 60 242.90625 60.207031 243.105469 60.4375 243.28125 C 60.667969 243.457031 60.914062 243.605469 61.175781 243.726562 C 61.441406 243.851562 61.714844 243.941406 62 244.003906 C 62.28125 244.066406 62.570312 244.097656 62.859375 244.101562 L 83.746094 244.101562 C 84.203125 244.101562 84.648438 244.023438 85.078125 243.871094 C 85.511719 243.71875 85.902344 243.5 86.257812 243.210938 C 86.609375 242.925781 86.902344 242.585938 87.136719 242.199219 C 87.371094 241.8125 87.535156 241.394531 87.621094 240.953125 L 91.953125 218.976562 L 106.589844 218.976562 C 114.867188 218.976562 121.835938 218.089844 127.296875 216.335938 C 132.914062 214.535156 138.085938 211.484375 142.660156 207.269531 C 146.445312 203.835938 149.566406 199.988281 151.921875 195.820312 C 154.277344 191.65625 155.980469 187.007812 156.964844 182.011719 C 159.410156 169.625 157.425781 159.707031 151.066406 152.535156 C 144.769531 145.429688 134.875 141.828125 121.65625 141.828125 M 91.640625 200.175781 L 104.34375 200.175781 C 112.765625 200.175781 119.039062 198.613281 123.15625 195.488281 C 127.277344 192.359375 130.058594 187.140625 131.503906 179.824219 C 132.886719 172.804688 132.257812 167.847656 129.617188 164.960938 C 126.976562 162.070312 121.683594 160.628906 113.75 160.628906 L 99.441406 160.628906 L 91.640625 200.175781 M 121.660156 145.71875 C 133.742188 145.71875 142.554688 148.84375 148.09375 155.09375 C 153.632812 161.34375 155.300781 170.066406 153.09375 181.269531 C 152.183594 185.882812 150.644531 190.101562 148.476562 193.921875 C 146.3125 197.746094 143.476562 201.246094 139.976562 204.414062 C 135.808594 208.261719 131.175781 211.003906 126.074219 212.636719 C 120.976562 214.273438 114.484375 215.085938 106.589844 215.085938 L 88.703125 215.085938 L 83.75 240.210938 L 62.863281 240.210938 L 81.5 145.726562 L 121.660156 145.726562 " fill-opacity="1" fill-rule="nonzero"/><path fill="#000000" d="M 202.914062 217.027344 C 202.324219 217.027344 201.765625 216.765625 201.390625 216.320312 C 201.015625 215.871094 200.863281 215.28125 200.976562 214.710938 L 209.21875 172.902344 C 210.003906 168.925781 209.808594 166.070312 208.675781 164.867188 C 207.980469 164.128906 205.894531 162.890625 199.722656 162.890625 L 184.789062 162.890625 L 174.425781 215.453125 C 174.382812 215.671875 174.300781 215.882812 174.183594 216.074219 C 174.066406 216.269531 173.921875 216.4375 173.742188 216.582031 C 173.566406 216.726562 173.371094 216.835938 173.15625 216.910156 C 172.941406 216.988281 172.71875 217.027344 172.488281 217.027344 L 151.769531 217.027344 C 151.472656 217.027344 151.191406 216.964844 150.925781 216.839844 C 150.660156 216.714844 150.433594 216.542969 150.246094 216.320312 C 150.058594 216.09375 149.925781 215.839844 149.855469 215.558594 C 149.78125 215.277344 149.773438 214.996094 149.832031 214.710938 L 168.464844 120.21875 C 168.507812 119.996094 168.589844 119.789062 168.707031 119.597656 C 168.824219 119.402344 168.96875 119.234375 169.148438 119.089844 C 169.324219 118.945312 169.519531 118.835938 169.734375 118.761719 C 169.949219 118.683594 170.171875 118.644531 170.402344 118.644531 L 191.121094 118.644531 C 191.417969 118.644531 191.699219 118.707031 191.964844 118.832031 C 192.230469 118.957031 192.457031 119.128906 192.644531 119.351562 C 192.832031 119.578125 192.964844 119.832031 193.035156 120.113281 C 193.109375 120.394531 193.117188 120.675781 193.058594 120.960938 L 188.5625 143.769531 L 204.628906 143.769531 C 216.867188 143.769531 225.164062 145.894531 230 150.269531 C 234.933594 154.730469 236.464844 161.867188 234.570312 171.480469 L 225.898438 215.453125 C 225.855469 215.675781 225.777344 215.882812 225.660156 216.078125 C 225.542969 216.269531 225.394531 216.441406 225.21875 216.582031 C 225.042969 216.726562 224.84375 216.835938 224.628906 216.914062 C 224.414062 216.988281 224.191406 217.027344 223.960938 217.027344 Z M 202.914062 217.027344 " fill-opacity="1" fill-rule="nonzero"/><path fill="#ffffff" d="M 191.125 116.699219 L 170.402344 116.699219 C 169.945312 116.699219 169.5 116.777344 169.070312 116.929688 C 168.636719 117.082031 168.246094 117.300781 167.894531 117.589844 C 167.539062 117.875 167.246094 118.214844 167.011719 118.601562 C 166.777344 118.988281 166.617188 119.40625 166.527344 119.847656 L 147.894531 214.339844 C 147.839844 214.621094 147.816406 214.90625 147.824219 215.191406 C 147.832031 215.480469 147.871094 215.761719 147.945312 216.039062 C 148.015625 216.316406 148.117188 216.585938 148.25 216.839844 C 148.378906 217.097656 148.539062 217.335938 148.722656 217.554688 C 148.910156 217.777344 149.117188 217.976562 149.347656 218.152344 C 149.574219 218.328125 149.824219 218.476562 150.085938 218.597656 C 150.347656 218.722656 150.621094 218.8125 150.90625 218.878906 C 151.191406 218.941406 151.476562 218.972656 151.769531 218.972656 L 172.488281 218.972656 C 172.949219 218.972656 173.394531 218.894531 173.824219 218.742188 C 174.253906 218.589844 174.648438 218.371094 175 218.082031 C 175.355469 217.796875 175.648438 217.457031 175.882812 217.070312 C 176.117188 216.683594 176.277344 216.265625 176.363281 215.824219 L 186.417969 164.835938 L 199.726562 164.835938 C 205.882812 164.835938 207.175781 166.132812 207.230469 166.191406 C 207.601562 166.585938 208.09375 168.417969 207.28125 172.53125 L 199.039062 214.339844 C 198.984375 214.621094 198.960938 214.90625 198.96875 215.191406 C 198.976562 215.480469 199.019531 215.761719 199.089844 216.039062 C 199.160156 216.316406 199.261719 216.585938 199.394531 216.839844 C 199.527344 217.097656 199.683594 217.335938 199.871094 217.554688 C 200.054688 217.777344 200.261719 217.976562 200.492188 218.152344 C 200.722656 218.328125 200.96875 218.476562 201.230469 218.597656 C 201.496094 218.722656 201.769531 218.8125 202.050781 218.878906 C 202.335938 218.941406 202.625 218.972656 202.914062 218.972656 L 223.964844 218.972656 C 224.421875 218.972656 224.867188 218.894531 225.296875 218.742188 C 225.730469 218.589844 226.121094 218.371094 226.476562 218.082031 C 226.828125 217.796875 227.121094 217.457031 227.355469 217.070312 C 227.589844 216.683594 227.75 216.265625 227.839844 215.824219 L 236.507812 171.851562 C 238.542969 161.53125 236.804688 153.789062 231.339844 148.835938 C 226.125 144.117188 217.386719 141.820312 204.632812 141.820312 L 190.960938 141.820312 L 195 121.332031 C 195.054688 121.050781 195.078125 120.765625 195.070312 120.480469 C 195.0625 120.191406 195.023438 119.910156 194.953125 119.632812 C 194.878906 119.355469 194.777344 119.085938 194.648438 118.832031 C 194.515625 118.574219 194.355469 118.335938 194.171875 118.117188 C 193.988281 117.894531 193.78125 117.695312 193.550781 117.519531 C 193.320312 117.34375 193.074219 117.195312 192.808594 117.070312 C 192.546875 116.949219 192.273438 116.855469 191.988281 116.792969 C 191.703125 116.730469 191.417969 116.699219 191.125 116.699219 M 191.125 120.589844 L 186.171875 145.710938 L 204.632812 145.710938 C 216.246094 145.710938 224.257812 147.710938 228.667969 151.699219 C 233.078125 155.691406 234.398438 162.164062 232.636719 171.109375 L 223.964844 215.082031 L 202.917969 215.082031 L 211.160156 173.273438 C 212.097656 168.515625 211.753906 165.273438 210.125 163.542969 C 208.496094 161.8125 205.027344 160.945312 199.726562 160.945312 L 183.164062 160.945312 L 172.488281 215.082031 L 151.769531 215.082031 L 170.402344 120.589844 L 191.125 120.589844 " fill-opacity="1" fill-rule="nonzero"/><path fill="#000000" d="M 267.355469 198.226562 C 275.292969 198.226562 281.21875 196.785156 284.96875 193.941406 C 288.675781 191.125 291.238281 186.25 292.582031 179.449219 C 293.832031 173.089844 293.355469 168.652344 291.164062 166.257812 C 288.921875 163.808594 284.078125 162.570312 276.761719 162.570312 L 264.078125 162.570312 L 257.046875 198.226562 Z M 225.875 242.148438 C 225.285156 242.148438 224.726562 241.890625 224.351562 241.441406 C 223.957031 240.96875 223.820312 240.433594 223.9375 239.832031 L 242.570312 145.339844 C 242.617188 145.121094 242.695312 144.914062 242.8125 144.71875 C 242.929688 144.523438 243.078125 144.355469 243.253906 144.210938 C 243.429688 144.070312 243.628906 143.957031 243.84375 143.882812 C 244.058594 143.804688 244.28125 143.769531 244.511719 143.769531 L 284.671875 143.769531 C 297.292969 143.769531 306.6875 147.140625 312.59375 153.808594 C 318.53125 160.503906 320.363281 169.867188 318.042969 181.632812 C 317.097656 186.429688 315.472656 190.878906 313.210938 194.867188 C 310.949219 198.855469 307.960938 202.546875 304.324219 205.84375 C 299.972656 209.855469 295.046875 212.765625 289.699219 214.480469 C 284.433594 216.171875 277.671875 217.027344 269.605469 217.027344 L 253.328125 217.027344 L 248.6875 240.574219 C 248.644531 240.796875 248.5625 241.003906 248.445312 241.199219 C 248.328125 241.394531 248.183594 241.5625 248.003906 241.707031 C 247.828125 241.851562 247.632812 241.960938 247.417969 242.035156 C 247.199219 242.113281 246.980469 242.148438 246.75 242.148438 L 225.863281 242.148438 Z M 225.875 242.148438 " fill-opacity="1" fill-rule="nonzero"/><path fill="#ffffff" d="M 265.707031 164.511719 L 276.761719 164.511719 C 285.589844 164.511719 288.65625 166.421875 289.699219 167.5625 C 291.429688 169.449219 291.753906 173.433594 290.644531 179.078125 C 289.394531 185.398438 287.082031 189.882812 283.765625 192.398438 C 280.367188 194.976562 274.847656 196.28125 267.359375 196.28125 L 259.445312 196.28125 Z M 284.671875 141.824219 L 244.507812 141.824219 C 244.050781 141.824219 243.605469 141.898438 243.175781 142.050781 C 242.746094 142.203125 242.351562 142.425781 242 142.710938 C 241.644531 143 241.351562 143.335938 241.117188 143.722656 C 240.882812 144.113281 240.722656 144.527344 240.636719 144.96875 L 222 239.46875 C 221.945312 239.75 221.921875 240.035156 221.929688 240.320312 C 221.9375 240.605469 221.976562 240.890625 222.050781 241.167969 C 222.121094 241.445312 222.222656 241.710938 222.355469 241.96875 C 222.484375 242.222656 222.644531 242.460938 222.828125 242.683594 C 223.015625 242.90625 223.222656 243.105469 223.449219 243.28125 C 223.679688 243.457031 223.925781 243.605469 224.191406 243.726562 C 224.453125 243.851562 224.726562 243.941406 225.011719 244.003906 C 225.296875 244.066406 225.582031 244.097656 225.875 244.101562 L 246.757812 244.101562 C 247.21875 244.101562 247.660156 244.023438 248.09375 243.871094 C 248.523438 243.71875 248.914062 243.5 249.269531 243.210938 C 249.621094 242.925781 249.917969 242.585938 250.152344 242.199219 C 250.386719 241.8125 250.546875 241.394531 250.632812 240.953125 L 254.964844 218.976562 L 269.601562 218.976562 C 277.878906 218.976562 284.847656 218.089844 290.308594 216.335938 C 295.929688 214.535156 301.097656 211.484375 305.675781 207.265625 C 309.457031 203.835938 312.574219 199.988281 314.933594 195.820312 C 317.296875 191.65625 318.992188 187.007812 319.980469 182.011719 C 322.421875 169.625 320.4375 159.707031 314.078125 152.535156 C 307.78125 145.429688 297.886719 141.828125 284.671875 141.828125 M 254.652344 200.175781 L 267.355469 200.175781 C 275.777344 200.175781 282.050781 198.613281 286.171875 195.488281 C 290.289062 192.359375 293.070312 187.140625 294.515625 179.824219 C 295.898438 172.804688 295.269531 167.847656 292.628906 164.960938 C 289.988281 162.070312 284.695312 160.628906 276.761719 160.628906 L 262.453125 160.628906 L 254.652344 200.175781 M 284.671875 145.71875 C 296.753906 145.71875 305.566406 148.84375 311.105469 155.09375 C 316.648438 161.34375 318.3125 170.066406 316.105469 181.269531 C 315.195312 185.882812 313.65625 190.101562 311.488281 193.921875 C 309.324219 197.746094 306.488281 201.246094 302.988281 204.414062 C 298.820312 208.261719 294.1875 211.003906 289.089844 212.636719 C 283.988281 214.273438 277.496094 215.085938 269.605469 215.085938 L 251.714844 215.085938 L 246.761719 240.210938 L 225.875 240.210938 L 244.511719 145.71875 L 284.671875 145.71875 " fill-opacity="1" fill-rule="nonzero"/></svg>